<svg width="64" height="64" viewBox="0 0 64 64" fill="none" xmlns="http://www.w3.org/2000/svg">
<path d="M31.976 8C18.728 8 8 18.752 8 32C8 45.248 18.728 56 31.976 56C45.248 56 56 45.248 56 32C56 18.752 45.248 8 31.976 8ZM48.608 22.4H41.528C40.76 19.4 39.656 16.52 38.216 13.856C42.632 15.368 46.304 18.44 48.608 22.4ZM32 12.896C33.992 15.776 35.552 18.968 36.584 22.4H27.416C28.448 18.968 30.008 15.776 32 12.896ZM13.424 36.8C13.04 35.264 12.8 33.656 12.8 32C12.8 30.344 13.04 28.736 13.424 27.2H21.536C21.344 28.784 21.2 30.368 21.2 32C21.2 33.632 21.344 35.216 21.536 36.8H13.424ZM15.392 41.6H22.472C23.24 44.6 24.344 47.48 25.784 50.144C21.368 48.632 17.696 45.584 15.392 41.6ZM22.472 22.4H15.392C17.696 18.416 21.368 15.368 25.784 13.856C24.344 16.52 23.24 19.4 22.472 22.4ZM32 51.104C30.008 48.224 28.448 45.032 27.416 41.6H36.584C35.552 45.032 33.992 48.224 32 51.104ZM37.616 36.8H26.384C26.168 35.216 26 33.632 26 32C26 30.368 26.168 28.76 26.384 27.2H37.616C37.832 28.76 38 30.368 38 32C38 33.632 37.832 35.216 37.616 36.8ZM38.216 50.144C39.656 47.48 40.76 44.6 41.528 41.6H48.608C46.304 45.56 42.632 48.632 38.216 50.144ZM42.464 36.8C42.656 35.216 42.8 33.632 42.8 32C42.8 30.368 42.656 28.784 42.464 27.2H50.576C50.96 28.736 51.2 30.344 51.2 32C51.2 33.656 50.96 35.264 50.576 36.8H42.464Z" fill="white"/>
</svg>
